<?xml version="1.0" encoding="UTF-8"?>
<svg width="21px" height="22px" viewBox="0 0 21 22" version="1.1" xmlns="http://www.w3.org/2000/svg" xmlns:xlink="http://www.w3.org/1999/xlink">
    <!-- Generator: sketchtool 54.1 (76490) - https://sketchapp.com -->
    <title>C0123D9F-6F98-42DA-91F9-994C8EE20FC7</title>
    <desc>Created with sketchtool.</desc>
    <g id="🤡-Documents" stroke="none" stroke-width="1" fill="none" fill-rule="evenodd">
        <g id="0_00_Documents" transform="translate(-20.000000, -124.000000)">
            <g id="Left_Menu">
                <g id="Document-Icon-Copy-3">
                    <g transform="translate(0.000000, 108.000000)">
                        <g id="Doc_Icon" transform="translate(18.000000, 15.000000)">
                            <path d="M14.2984379,3 L7,3 C5.8954305,3 5,3.8954305 5,5 L5,19 C5,20.1045695 5.8954305,21 7,21 L18,21 C19.1045695,21 20,20.1045695 20,19 L20,7.96124969 C20,7.35368225 19.7238206,6.77905645 19.2493901,6.39951208 L15.547828,3.43826238 C15.1932019,3.1545615 14.7525809,3 14.2984379,3 Z M7,17 L7,7 C7,5.8954305 7.8954305,5 9,5 L12,5 C13.1045695,5 14,5.8954305 14,7 L14,8 C14,8.55228475 14.4477153,9 15,9 L16,9 C17.1045695,9 18,9.8954305 18,11 L18,17 C18,18.1045695 17.1045695,19 16,19 L9,19 C7.8954305,19 7,18.1045695 7,17 Z" id="Shape-Copy" fill="#BAC8D9" fill-rule="nonzero"></path>
                            <path d="M11.2984379,1 L4,1 C2.8954305,1 2,1.8954305 2,3 L2,17 C2,18.1045695 2.8954305,19 4,19 L15,19 C16.1045695,19 17,18.1045695 17,17 L17,5.96124969 C17,5.35368225 16.7238206,4.77905645 16.2493901,4.39951208 L12.547828,1.43826238 C12.1932019,1.1545615 11.7525809,1 11.2984379,1 Z M4,15 L4,5 C4,3.8954305 4.8954305,3 6,3 L9,3 C10.1045695,3 11,3.8954305 11,5 L11,6 C11,6.55228475 11.4477153,7 12,7 L13,7 C14.1045695,7 15,7.8954305 15,9 L15,15 C15,16.1045695 14.1045695,17 13,17 L6,17 C4.8954305,17 4,16.1045695 4,15 Z" id="Shape-Copy-2" fill="#BAC8D9" fill-rule="nonzero"></path>
                            <path d="M17.2984379,5 L10,5 C8.8954305,5 8,5.8954305 8,7 L8,21 C8,22.1045695 8.8954305,23 10,23 L21,23 C22.1045695,23 23,22.1045695 23,21 L23,9.96124969 C23,9.35368225 22.7238206,8.77905645 22.2493901,8.39951208 L18.547828,5.43826238 C18.1932019,5.1545615 17.7525809,5 17.2984379,5 Z M10,19 L10,9 C10,7.8954305 10.8954305,7 12,7 L15,7 C16.1045695,7 17,7.8954305 17,9 L17,10 C17,10.5522847 17.4477153,11 18,11 L19,11 C20.1045695,11 21,11.8954305 21,13 L21,19 C21,20.1045695 20.1045695,21 19,21 L12,21 C10.8954305,21 10,20.1045695 10,19 Z" id="Shape" fill="#FFFFFF" fill-rule="nonzero"></path>
                            <path d="M10,19 L10,9 C10,7.8954305 10.8954305,7 12,7 L15,7 C16.1045695,7 17,7.8954305 17,9 L17,10 C17,10.5522847 17.4477153,11 18,11 L19,11 C20.1045695,11 21,11.8954305 21,13 L21,19 C21,20.1045695 20.1045695,21 19,21 L12,21 C10.8954305,21 10,20.1045695 10,19 Z" id="Path-Copy" fill="#30629E" fill-rule="nonzero"></path>
                            <path d="M12,13 L19,13 C19.5522847,13 20,13.4477153 20,14 C20,14.5522847 19.5522847,15 19,15 L12,15 C11.4477153,15 11,14.5522847 11,14 C11,13.4477153 11.4477153,13 12,13 Z M12,17 L19,17 C19.5522847,17 20,17.4477153 20,18 C20,18.5522847 19.5522847,19 19,19 L12,19 C11.4477153,19 11,18.5522847 11,18 C11,17.4477153 11.4477153,17 12,17 Z" id="Combined-Shape" fill="#FFFFFF"></path>
                        </g>
                    </g>
                </g>
            </g>
        </g>
    </g>
</svg>