<?xml version="1.0" encoding="UTF-8"?>
<svg width="40px" height="28px" viewBox="0 0 40 28" version="1.1" xmlns="http://www.w3.org/2000/svg" xmlns:xlink="http://www.w3.org/1999/xlink">
    <!-- Generator: sketchtool 54.1 (76490) - https://sketchapp.com -->
    <title>72EDA485-BC1E-45AB-A7B0-B5D233735472</title>
    <desc>Created with sketchtool.</desc>
    <defs>
        <path d="M6.81107463,27.9016387 C6.81107463,27.9016387 6.80859701,27.8988989 6.80310448,27.8937806 C6.80814925,27.8936903 6.81065672,27.8936301 6.81065672,27.8936301 C6.81065672,27.8936301 6.72764179,19.0028172 1.18546269,13.6477419 C0.891791045,13.3640387 0.588537313,13.0958409 0.278089552,12.8425462 C0.810507463,5.70293763 6.80140299,0 6.80140299,0 C6.80140299,0 12.184,5.52732043 12.8562388,12.6570538 C12.5547463,12.9202237 12.2611045,13.1976043 11.9772537,13.4902796 C6.76814925,18.8643226 6.81480597,27.4032387 6.82164179,27.8908 C6.81480597,27.8979355 6.81107463,27.9016387 6.81107463,27.9016387 Z" id="path-1"></path>
        <path d="M6.32050746,6.23993548 C6.31373134,5.83351398 6.31546269,5.52253333 6.27761194,5.12529462 C11.7377015,0.390223656 19.7864776,0.223578495 19.7864776,0.223578495 C19.7864776,0.223578495 19.9976119,9.16235269 14.5759403,14.7269161 C9.15465672,20.2914194 0.153820896,20.374757 0.153820896,20.374757 C0.440656716,20.0576344 6.44480597,13.7974667 6.32050746,6.23993548 Z" id="path-3"></path>
        <path d="M5.39462687,1.12403441 C5.6799403,0.831991398 5.97513433,0.555574194 6.27814925,0.293156989 C6.316,0.687083871 6.33877612,1.08643011 6.34549254,1.48944946 C6.46916418,8.98363441 0.439761194,15.2648172 0.154089552,15.5575527 C0.14719403,15.0713462 0.158626866,6.48314409 5.39462687,1.12403441 Z" id="path-5"></path>
        <path d="M20.331791,19.7726065 C19.1878209,19.7726065 11.0788955,19.5920817 5.88937313,14.5886323 C0.296179104,9.19583226 0.21241791,0.242516129 0.21241791,0.242516129 C0.21241791,0.242516129 0.259223881,0.241462366 0.347970149,0.241462366 C1.42692537,0.241462366 8.69761194,0.401965591 13.8751045,4.61461075 C13.8445373,5.02021935 13.8317612,5.43076559 13.8385672,5.84477419 C13.9635522,13.4384043 20.2028657,19.5238581 20.4601791,19.7717032 C20.4434925,19.7719742 20.4001791,19.7726065 20.331791,19.7726065 Z" id="path-7"></path>
        <path d="M7.01958209,15.2564774 C6.7578806,15.0080602 0.407104478,8.90905806 0.279910448,1.29847742 C0.272985075,0.883565591 0.285970149,0.472086022 0.317074627,0.0655741935 C0.635970149,0.321217204 0.947462687,0.591913978 1.24910448,0.878236559 C6.9420597,6.28301935 7.02734328,15.2562968 7.02734328,15.2562968 C7.02734328,15.2562968 7.02477612,15.2563871 7.01958209,15.2564774 Z" id="path-9"></path>
    </defs>
    <g id="🤡-Configuration" stroke="none" stroke-width="1" fill="none" fill-rule="evenodd">
        <g id="0_00_Module-Configuration" transform="translate(-10.000000, -13.000000)">
            <g id="Left_Menu">
                <g id="Logo" transform="translate(10.000000, 13.000000)">
                    <g id="EMIS-LOGO">
                        <g id="Group-2">
                            <g id="Group-33" transform="translate(13.432836, 0.000000)">
                                <mask id="mask-2" fill="white">
                                    <use xlink:href="#path-1"></use>
                                </mask>
                                <g id="Clip-32"></g>
                                <polygon id="Fill-31" fill="#008CD6" mask="url(#mask-2)" points="-1.21444776 29.4070151 14.3487701 29.4070151 14.3487701 -1.50537634 -1.21444776 -1.50537634"></polygon>
                            </g>
                            <g id="Group-36" transform="translate(20.000000, 7.526882)">
                                <mask id="mask-4" fill="white">
                                    <use xlink:href="#path-3"></use>
                                </mask>
                                <g id="Clip-35"></g>
                                <polygon id="Fill-34" fill="#3DCEF4" mask="url(#mask-4)" points="-1.33871642 21.8801333 21.2801015 21.8801333 21.2801015 -1.28179484 -1.33871642 -1.28179484"></polygon>
                            </g>
                            <g id="Group-39" transform="translate(20.000000, 12.344086)">
                                <mask id="mask-6" fill="white">
                                    <use xlink:href="#path-5"></use>
                                </mask>
                                <g id="Clip-38"></g>
                                <polygon id="Fill-37" fill="#00BBED" mask="url(#mask-6)" points="-1.33889552 17.062929 7.83990746 17.062929 7.83990746 -1.21220731 -1.33889552 -1.21220731"></polygon>
                            </g>
                            <g id="Group-42" transform="translate(0.000000, 8.129032)">
                                <mask id="mask-8" fill="white">
                                    <use xlink:href="#path-7"></use>
                                </mask>
                                <g id="Clip-41"></g>
                                <polygon id="Fill-40" fill="#7FB44A" mask="url(#mask-8)" points="-1.2801194 21.2779828 21.9526985 21.2779828 21.9526985 -1.26391097 -1.2801194 -1.26391097"></polygon>
                            </g>
                            <g id="Group-45" transform="translate(13.432836, 12.645161)">
                                <mask id="mask-10" fill="white">
                                    <use xlink:href="#path-9"></use>
                                </mask>
                                <g id="Clip-44"></g>
                                <polygon id="Fill-43" fill="#5BA249" mask="url(#mask-10)" points="-1.21444776 16.7618538 8.51987463 16.7618538 8.51987463 -1.4397871 -1.21444776 -1.4397871"></polygon>
                            </g>
                        </g>
                    </g>
                </g>
            </g>
        </g>
    </g>
</svg>