<?xml version="1.0" encoding="UTF-8"?>
<svg width="22px" height="22px" viewBox="0 0 22 22" version="1.1" xmlns="http://www.w3.org/2000/svg" xmlns:xlink="http://www.w3.org/1999/xlink">
    <!-- Generator: sketchtool 54.1 (76490) - https://sketchapp.com -->
    <title>AE32ADA0-614D-465D-8036-0212736D6692</title>
    <desc>Created with sketchtool.</desc>
    <g id="🤡-Configuration" stroke="none" stroke-width="1" fill="none" fill-rule="evenodd">
        <g id="0_00_Module-Configuration" transform="translate(-19.000000, -70.000000)" fill="#FFFFFF">
            <g id="Left_Menu">
                <g id="Document-Icon-Copy" transform="translate(0.000000, 54.000000)">
                    <g id="Med_Icon" transform="translate(18.000000, 15.000000)">
                        <g id="Group" transform="translate(1.000000, 1.000000)">
                            <rect id="Rectangle" x="0" y="0" width="10" height="10" rx="2"></rect>
                            <rect id="Rectangle-Copy-2" opacity="0.699999988" x="12" y="0" width="10" height="10" rx="2"></rect>
                            <rect id="Rectangle-Copy-6" opacity="0.699999988" x="0" y="12" width="10" height="10" rx="2"></rect>
                            <path d="M14,12 L20,12 C21.1045695,12 22,12.8954305 22,14 L22,20 C22,21.1045695 21.1045695,22 20,22 L14,22 C12.8954305,22 12,21.1045695 12,20 L12,14 C12,12.8954305 12.8954305,12 14,12 Z M13.886141,17.8776394 C13.9570913,18.1209413 14.055553,18.3555539 14.1800782,18.5756843 L13.8253264,19.0231861 C13.7094891,19.1694569 13.7225208,19.3780014 13.8528377,19.50979 L14.4638796,20.1209413 C14.5956445,20.2527299 14.8041517,20.2643012 14.9503963,20.1484432 L15.394922,19.7965243 C15.6237007,19.9283273 15.866959,20.0311369 16.1203532,20.1035482 L16.1869596,20.6755974 C16.2086791,20.8609703 16.3650595,21 16.5503992,21 L17.4148351,21 C17.6001748,21 17.7565552,20.8609558 17.7782747,20.6755974 L17.8419852,20.1238233 C18.1142029,20.0528602 18.3748369,19.9471398 18.6195432,19.8095583 L19.0495892,20.1498914 C19.1958338,20.2657495 19.404341,20.2527154 19.5361059,20.1223751 L20.1471478,19.5112238 C20.2789127,19.3794352 20.2904965,19.1708907 20.1746591,19.0246198 L19.8401789,18.6002896 C19.9791837,18.3598697 20.0877812,18.1035482 20.1601795,17.8356264 L20.6756555,17.7762491 C20.8610097,17.7545257 21,17.5981173 21,17.4127444 L21,16.5481535 C21,16.3627806 20.8609952,16.2063722 20.6756555,16.1846488 L20.1674193,16.1252715 C20.0979024,15.8602462 19.9936633,15.6068067 19.8604649,15.3692976 L20.1732257,14.9739319 C20.289063,14.8276611 20.2760313,14.6191166 20.1457143,14.487328 L19.5361204,13.8776249 C19.4043555,13.7458364 19.1958483,13.7342505 19.0496037,13.8501086 L18.6658926,14.1542361 C18.4168424,14.0079652 18.1504021,13.8964518 17.870959,13.8211441 L17.8130404,13.3244026 C17.7913209,13.1390297 17.6349405,13 17.4496008,13 L16.5851649,13 C16.3998252,13 16.2434448,13.1390297 16.2217253,13.3244026 L16.1638066,13.8211441 C15.8771093,13.8979001 15.6034436,14.0137581 15.3486015,14.1658219 L14.9504108,13.8501086 C14.8041662,13.7342505 14.595659,13.7472846 14.4638941,13.8776249 L13.8528522,14.4887762 C13.7210873,14.6205648 13.7095035,14.8291093 13.8253409,14.9753802 L14.1583731,15.3968139 C14.0251602,15.6372194 13.9238026,15.8935554 13.8571961,16.160029 L13.3243445,16.2208545 C13.1390048,16.2425778 13,16.3989862 13,16.5843592 L13,17.44895 C13,17.634323 13.1390048,17.7907314 13.3243445,17.8124547 L13.886141,17.8776394 Z M17.0180923,15.5387545 C17.8057861,15.5387545 18.4472352,16.1803186 18.4472352,16.9681535 C18.4472352,17.7559884 17.8057861,18.3975525 17.0180923,18.3975525 C16.2304131,18.3975525 15.5889495,17.7559884 15.5889495,16.9681535 C15.5889495,16.1803186 16.2303986,15.5387545 17.0180923,15.5387545 Z" id="Combined-Shape"></path>
                        </g>
                    </g>
                </g>
            </g>
        </g>
    </g>
</svg>