<?xml version="1.0" encoding="UTF-8"?>
<svg width="24px" height="20px" viewBox="0 0 24 20" version="1.1" xmlns="http://www.w3.org/2000/svg" xmlns:xlink="http://www.w3.org/1999/xlink">
    <!-- Generator: sketchtool 54.1 (76490) - https://sketchapp.com -->
    <title>9AAD39C9-F027-43D4-8CB4-28AE9E3CE94D</title>
    <desc>Created with sketchtool.</desc>
    <g id="🤡-Configuration" stroke="none" stroke-width="1" fill="none" fill-rule="evenodd">
        <g id="0_00_Module-Configuration" transform="translate(-18.000000, -125.000000)" fill="#FFFFFF" fill-rule="nonzero">
            <g id="Left_Menu">
                <g id="Organisation" transform="translate(0.000000, 108.000000)">
                    <g id="Org_Icon" transform="translate(18.000000, 15.000000)">
                        <g id="Icon" transform="translate(0.000000, 2.000000)">
                            <path d="M12.0000542,9.33333333 C9.89134103,9.33333333 8.18181818,7.24401629 8.18181818,4.66669393 C8.18181818,2.08931705 8.74318801,0 12.0000542,0 C15.2569204,0 15.8181818,2.08931705 15.8181818,4.66669393 C15.8181818,7.24401629 14.108659,9.33333333 12.0000542,9.33333333 Z M18.9921631,17.2040636 C18.9965286,17.4894384 18.9988429,17.5387979 19,17.5133326 C18.9998422,17.5889702 18.999737,17.7001509 18.999737,17.860041 C18.999737,17.860041 17.9691557,20 12.0001578,20 C6.03105464,20 5.00057856,17.860041 5.00057856,17.860041 C5.00057856,17.6111846 5.00026298,17.4684701 5,17.3913155 C5.00115713,17.4324935 5.00415515,17.413855 5.01062455,17.0591277 C5.08951972,12.7150045 5.68954376,11.4625953 9.97065851,10.6666667 C9.97065851,10.6666667 10.5800448,11.4664422 12.0001578,11.4664422 C13.4202708,11.4664422 14.0295519,10.6666667 14.0295519,10.6666667 C18.3578985,11.4713727 18.9235243,12.7426371 18.9921631,17.2040636 Z" id="Combined-Shape"></path>
                            <path d="M5.50004257,8.53333333 C3.84319653,8.53333333 2.5,7.0708114 2.5,5.26668575 C2.5,3.46252193 2.94107629,2 5.50004257,2 C8.05900886,2 8.5,3.46252193 8.5,5.26668575 C8.5,7.0708114 7.15680347,8.53333333 5.50004257,8.53333333 Z M10.9938424,14.0428445 C10.9972725,14.2426069 10.9990908,14.2771586 11,14.2593328 C10.999876,14.3122791 10.9997934,14.3901057 10.9997934,14.5020287 C10.9997934,14.5020287 10.1900509,16 5.50012398,16 C0.81011436,16 0.000454586439,14.5020287 0.000454586439,14.5020287 C0.000454586439,14.3278293 0.0002066302,14.2279291 0,14.1739208 C0.000909172878,14.2027455 0.00326475715,14.1896985 0.00834786006,13.9413894 C0.0703369199,10.9005031 0.541784383,10.0238167 3.9055174,9.46666667 C3.9055174,9.46666667 4.3843209,10.0265095 5.50012398,10.0265095 C6.61592706,10.0265095 7.0946479,9.46666667 7.0946479,9.46666667 C10.4954917,10.0299609 10.9399119,10.919846 10.9938424,14.0428445 Z" id="Combined-Shape-Copy" opacity="0.699999988"></path>
                            <path d="M18.5000426,8.53333333 C16.8431965,8.53333333 15.5,7.0708114 15.5,5.26668575 C15.5,3.46252193 15.9410763,2 18.5000426,2 C21.0590089,2 21.5,3.46252193 21.5,5.26668575 C21.5,7.0708114 20.1568035,8.53333333 18.5000426,8.53333333 Z M23.9938424,14.0428445 C23.9972725,14.2426069 23.9990908,14.2771586 24,14.2593328 C23.999876,14.3122791 23.9997934,14.3901057 23.9997934,14.5020287 C23.9997934,14.5020287 23.1900509,16 18.500124,16 C13.8101144,16 13.0004546,14.5020287 13.0004546,14.5020287 C13.0004546,14.3278293 13.0002066,14.2279291 13,14.1739208 C13.0009092,14.2027455 13.0032648,14.1896985 13.0083479,13.9413894 C13.0703369,10.9005031 13.5417844,10.0238167 16.9055174,9.46666667 C16.9055174,9.46666667 17.3843209,10.0265095 18.500124,10.0265095 C19.6159271,10.0265095 20.0946479,9.46666667 20.0946479,9.46666667 C23.4954917,10.0299609 23.9399119,10.919846 23.9938424,14.0428445 Z" id="Combined-Shape-Copy-2" opacity="0.699999988"></path>
                        </g>
                    </g>
                </g>
            </g>
        </g>
    </g>
</svg>